# xmcd
#
# Track frame offsets:
#	150
#	14115
#	35512
#	52843
#	72793
#	93612
#	103500
#	121145
#	132072
#	145360
#	162798
#	178619
#	193415
#	206189
#	221504
#	236176
#	255342
#	271634
#	293988
#
# Disc length: 4116 seconds
#
# Revision: 1
# Processed by: cddbd v1.5.2PL0 Copyright (c) Steve Scherf et al.
# Submitted via: audiograbber 1.82.02
#
DISCID=1d101213
DTITLE=Various Artist - James Brown Presents, A Soulful Christmas Disc 2
DYEAR=2007
DGENRE=Soul
TTITLE0=Charles Brown - Merry Christmas Baby
TTITLE1=Harold Melvin and The Bluenotes - Silent Night
TTITLE2=The Trammps - The First Noel
TTITLE3=James Brown - Don't Forget The Poor At Christmas
TTITLE4=Harold Melvin and The Bluenotes - O Holy Night
TTITLE5=The Platters - Deck The Halls
TTITLE6=James Brown - A Gift
TTITLE7=Harold Melvin and The Bluenotes - The First Noel
TTITLE8=The Platters - Away In A Manger
TTITLE9=The Miracles - O Holy Night
TTITLE10=James Brown - Not Just Another Holiday
TTITLE11=Harold Melvin and The Bluenotes - We Wish You A Merry Christmas
TTITLE12=The Platters - O Tannenbaum
TTITLE13=The Drifters - O Holy Night
TTITLE14=Ben E. King - Stand By Me
TTITLE15=James Brown - It's A Man's, Man's, Man's World
TTITLE16=Harold Melvin and The Bluenotes - If You Don't Know Me By Now
TTITLE17=Billy Paul - Me and Mrs. Jones
TTITLE18=George McCrae  - Rock Your Baby
EXTD=
EXTT0=
EXTT1=
EXTT2=
EXTT3=
EXTT4=
EXTT5=
EXTT6=
EXTT7=
EXTT8=
EXTT9=
EXTT10=
EXTT11=
EXTT12=
EXTT13=
EXTT14=
EXTT15=
EXTT16=
EXTT17=
EXTT18=
PLAYORDER=
